{
  "accessors": [
    {
      "bufferView": 2,
      "componentType": 5126,
      "count": 10521,
      "max": [
        1.7046600580215454,
        2.0009899139404297,
        0.75363999605178833
      ],
      "min": [
        -1.7046600580215454,
        -0.98803001642227173,
        -0.99843001365661621
      ],
      "type": "VEC3"
    },
    {
      "bufferView": 2,
      "byteOffset": 126252,
      "componentType": 5126,
      "count": 10521,
      "max": [
        1,
        1,
        1
      ],
      "min": [
        -1,
        -1,
        -1
      ],
      "type": "VEC3"
    },
    {
      "bufferView": 3,
      "componentType": 5126,
      "count": 10521,
      "max": [
        0,
        0,
        0,
        1
      ],
      "min": [
        0,
        0,
        0,
        1
      ],
      "type": "VEC4"
    },
    {
      "bufferView": 0,
      "componentType": 5125,
      "count": 60480,
      "max": [
        10520
      ],
      "min": [
        0
      ],
      "type": "SCALAR"
    },
    {
      "bufferView": 2,
      "byteOffset": 252504,
      "componentType": 5126,
      "count": 5755,
      "max": [
        1.6843299865722656,
        1.7351800203323364,
        1.6065700054168701
      ],
      "min": [
        -1.6843299865722656,
        -0.97109001874923706,
        -0.25249999761581421
      ],
      "type": "VEC3"
    },
    {
      "bufferView": 2,
      "byteOffset": 321564,
      "componentType": 5126,
      "count": 5755,
      "max": [
        1,
        1,
        1
      ],
      "min": [
        -1,
        -1,
        -0.99641984701156616
      ],
      "type": "VEC3"
    },
    {
      "bufferView": 3,
      "byteOffset": 168336,
      "componentType": 5126,
      "count": 5755,
      "max": [
        0,
        0,
        0,
        1
      ],
      "min": [
        0,
        0,
        0,
        1
      ],
      "type": "VEC4"
    },
    {
      "bufferView": 0,
      "byteOffset": 241920,
      "componentType": 5125,
      "count": 32448,
      "max": [
        5754
      ],
      "min": [
        0
      ],
      "type": "SCALAR"
    },
    {
      "bufferView": 2,
      "byteOffset": 390624,
      "componentType": 5126,
      "count": 800,
      "max": [
        0.57577002048492432,
        0.57577002048492432,
        0.37681999802589417
      ],
      "min": [
        -0.57577002048492432,
        -0.86146998405456543,
        -0.99484997987747192
      ],
      "type": "VEC3"
    },
    {
      "bufferView": 2,
      "byteOffset": 400224,
      "componentType": 5126,
      "count": 800,
      "max": [
        0.99261051416397095,
        0.95846498012542725,
        0.99998873472213745
      ],
      "min": [
        -0.99261051416397095,
        -0.98001813888549805,
        -0.99998682737350464
      ],
      "type": "VEC3"
    },
    {
      "bufferView": 3,
      "byteOffset": 260416,
      "componentType": 5126,
      "count": 800,
      "max": [
        0,
        0,
        0,
        1
      ],
      "min": [
        0,
        0,
        0,
        1
      ],
      "type": "VEC4"
    },
    {
      "bufferView": 0,
      "byteOffset": 371712,
      "componentType": 5125,
      "count": 3840,
      "max": [
        799
      ],
      "min": [
        0
      ],
      "type": "SCALAR"
    },
    {
      "bufferView": 2,
      "byteOffset": 409824,
      "componentType": 5126,
      "count": 500,
      "max": [
        0.50038999319076538,
        0.1163100004196167,
        1.6449099779129028
      ],
      "min": [
        -0.50038999319076538,
        -0.83145999908447266,
        0.22855000197887421
      ],
      "type": "VEC3"
    },
    {
      "bufferView": 2,
      "byteOffset": 415824,
      "componentType": 5126,
      "count": 500,
      "max": [
        0.9045405387878418,
        0.98639857769012451,
        1
      ],
      "min": [
        -0.9045405387878418,
        -0.91623502969741821,
        0.16437143087387085
      ],
      "type": "VEC3"
    },
    {
      "bufferView": 3,
      "byteOffset": 273216,
      "componentType": 5126,
      "count": 500,
      "max": [
        0,
        0,
        0,
        1
      ],
      "min": [
        0,
        0,
        0,
        1
      ],
      "type": "VEC4"
    },
    {
      "bufferView": 0,
      "byteOffset": 387072,
      "componentType": 5125,
      "count": 2304,
      "max": [
        499
      ],
      "min": [
        0
      ],
      "type": "SCALAR"
    },
    {
      "bufferView": 2,
      "byteOffset": 421824,
      "componentType": 5126,
      "count": 165,
      "max": [
        0.30564001202583313,
        -0.2375900000333786,
        1.6518800258636475
      ],
      "min": [
        -0.30564001202583313,
        -0.37356999516487122,
        1.6399400234222412
      ],
      "type": "VEC3"
    },
    {
      "bufferView": 2,
      "byteOffset": 423804,
      "componentType": 5126,
      "count": 165,
      "max": [
        0.57616937160491943,
        0.70519554615020752,
        0.99999958276748657
      ],
      "min": [
        -0.57616937160491943,
        -0.47987827658653259,
        0.67489528656005859
      ],
      "type": "VEC3"
    },
    {
      "bufferView": 3,
      "byteOffset": 281216,
      "componentType": 5126,
      "count": 165,
      "max": [
        1,
        0.19176521897315979,
        0.59334087371826172,
        1
      ],
      "min": [
        0.80145233869552612,
        -0.1917652040719986,
        -0.59334081411361694,
        1
      ],
      "type": "VEC4"
    },
    {
      "bufferView": 1,
      "componentType": 5126,
      "count": 165,
      "max": [
        0.99994999170303345,
        0.26063999533653259
      ],
      "min": [
        4.9999998736893758e-05,
        0.0031000000890344381
      ],
      "type": "VEC2"
    },
    {
      "bufferView": 0,
      "byteOffset": 396288,
      "componentType": 5125,
      "count": 768,
      "max": [
        164
      ],
      "min": [
        0
      ],
      "type": "SCALAR"
    },
    {
      "bufferView": 2,
      "byteOffset": 425784,
      "componentType": 5126,
      "count": 245,
      "max": [
        0.49406999349594116,
        0.96233999729156494,
        0.38267999887466431
      ],
      "min": [
        -0.49406999349594116,
        0.81699001789093018,
        0.19508999586105347
      ],
      "type": "VEC3"
    },
    {
      "bufferView": 2,
      "byteOffset": 428724,
      "componentType": 5126,
      "count": 245,
      "max": [
        0.94550579786300659,
        0.99973523616790771,
        1
      ],
      "min": [
        -0.94550579786300659,
        0,
        -1
      ],
      "type": "VEC3"
    },
    {
      "bufferView": 3,
      "byteOffset": 283856,
      "componentType": 5126,
      "count": 245,
      "max": [
        0,
        0,
        0,
        1
      ],
      "min": [
        0,
        0,
        0,
        1
      ],
      "type": "VEC4"
    },
    {
      "bufferView": 0,
      "byteOffset": 399360,
      "componentType": 5125,
      "count": 1344,
      "max": [
        244
      ],
      "min": [
        0
      ],
      "type": "SCALAR"
    },
    {
      "bufferView": 2,
      "byteOffset": 431664,
      "componentType": 5126,
      "count": 5697,
      "max": [
        0.99202001094818115,
        0.99202001094818115,
        0.9797700047492981
      ],
      "min": [
        -0.99202001094818115,
        -0.99202001094818115,
        0.19492000341415405
      ],
      "type": "VEC3"
    },
    {
      "bufferView": 2,
      "byteOffset": 500028,
      "componentType": 5126,
      "count": 5697,
      "max": [
        0.93873965740203857,
        0.93873965740203857,
        1
      ],
      "min": [
        -0.93873965740203857,
        -0.93873965740203857,
        -0.99957787990570068
      ],
      "type": "VEC3"
    },
    {
      "bufferView": 0,
      "byteOffset": 404736,
      "componentType": 5125,
      "count": 23808,
      "max": [
        5696
      ],
      "min": [
        0
      ],
      "type": "SCALAR"
    },
    {
      "bufferView": 2,
      "byteOffset": 568392,
      "componentType": 5126,
      "count": 2304,
      "max": [
        0.99202001094818115,
        0.99202001094818115,
        0.9301300048828125
      ],
      "min": [
        -0.99202001094818115,
        -0.99202001094818115,
        0.20358000695705414
      ],
      "type": "VEC3"
    },
    {
      "bufferView": 2,
      "byteOffset": 596040,
      "componentType": 5126,
      "count": 2304,
      "max": [
        0.98963695764541626,
        0.98963695764541626,
        0.98344796895980835
      ],
      "min": [
        -0.98963695764541626,
        -0.98963695764541626,
        -0.15207524597644806
      ],
      "type": "VEC3"
    },
    {
      "bufferView": 0,
      "byteOffset": 499968,
      "componentType": 5125,
      "count": 12288,
      "max": [
        2303
      ],
      "min": [
        0
      ],
      "type": "SCALAR"
    },
    {
      "bufferView": 2,
      "byteOffset": 623688,
      "componentType": 5126,
      "count": 3653,
      "max": [
        0.9904099702835083,
        1.4392999410629272,
        2.4917900562286377
      ],
      "min": [
        -0.9904099702835083,
        -0.9904099702835083,
        -1
      ],
      "type": "VEC3"
    },
    {
      "bufferView": 2,
      "byteOffset": 667524,
      "componentType": 5126,
      "count": 3653,
      "max": [
        0.99996191263198853,
        0.99996191263198853,
        1
      ],
      "min": [
        -0.99996191263198853,
        -0.99996191263198853,
        -1
      ],
      "type": "VEC3"
    },
    {
      "bufferView": 0,
      "byteOffset": 549120,
      "componentType": 5125,
      "count": 19200,
      "max": [
        3652
      ],
      "min": [
        0
      ],
      "type": "SCALAR"
    },
    {
      "bufferView": 2,
      "byteOffset": 711360,
      "componentType": 5126,
      "count": 3054,
      "max": [
        0.9788699746131897,
        1.3528200387954712,
        2.4881300926208496
      ],
      "min": [
        -0.9788699746131897,
        -0.9788699746131897,
        -0.7955700159072876
      ],
      "type": "VEC3"
    },
    {
      "bufferView": 2,
      "byteOffset": 748008,
      "componentType": 5126,
      "count": 3054,
      "max": [
        0.99870073795318604,
        0.99905365705490112,
        1
      ],
      "min": [
        -0.99163329601287842,
        -0.99902510643005371,
        -0.98409277200698853
      ],
      "type": "VEC3"
    },
    {
      "bufferView": 0,
      "byteOffset": 625920,
      "componentType": 5125,
      "count": 16128,
      "max": [
        3053
      ],
      "min": [
        0
      ],
      "type": "SCALAR"
    },
    {
      "bufferView": 2,
      "byteOffset": 784656,
      "componentType": 5126,
      "count": 640,
      "max": [
        0.78196001052856445,
        0.78196001052856445,
        0.48864001035690308
      ],
      "min": [
        -0.78196001052856445,
        -0.78196001052856445,
        0.42254000902175903
      ],
      "type": "VEC3"
    },
    {
      "bufferView": 2,
      "byteOffset": 792336,
      "componentType": 5126,
      "count": 640,
      "max": [
        0.9766724705696106,
        0.9766724705696106,
        0.26765680313110352
      ],
      "min": [
        -0.9766724705696106,
        -0.9766724705696106,
        -0.74901187419891357
      ],
      "type": "VEC3"
    },
    {
      "bufferView": 0,
      "byteOffset": 690432,
      "componentType": 5125,
      "count": 3072,
      "max": [
        639
      ],
      "min": [
        0
      ],
      "type": "SCALAR"
    }
  ],
  "asset": {
    "extras": {
      "author": "Robin Butler (https://sketchfab.com/StarTrekGuy)",
      "license": "CC-BY-NC-4.0 (http://creativecommons.org/licenses/by-nc/4.0/)",
      "source": "https://sketchfab.com/models/5a7ec388f73747249cfd7b95631c3043",
      "title": "BubbleCraft - Spaceship"
    },
    "generator": "Sketchfab-3.19.5",
    "version": "2.0"
  },
  "bufferViews": [
    {
      "buffer": 0,
      "byteLength": 702720,
      "byteOffset": 0,
      "name": "floatBufferViews",
      "target": 34963
    },
    {
      "buffer": 0,
      "byteLength": 1320,
      "byteOffset": 702720,
      "byteStride": 8,
      "name": "floatBufferViews",
      "target": 34962
    },
    {
      "buffer": 0,
      "byteLength": 800016,
      "byteOffset": 704040,
      "byteStride": 12,
      "name": "floatBufferViews",
      "target": 34962
    },
    {
      "buffer": 0,
      "byteLength": 287776,
      "byteOffset": 1504056,
      "byteStride": 16,
      "name": "floatBufferViews",
      "target": 34962
    }
  ],
  "buffers": [
    {
      "byteLength": 1791832,
      "uri": "scene.bin"
    }
  ],
  "images": [
    {
      "uri": "textures/Material.007_normal.png"
    },
    {
      "uri": "textures/Material.007_baseColor.png"
    },
    {
      "uri": "textures/Material.007_metallicRoughness.png"
    }
  ],
  "materials": [
    {
      "doubleSided": true,
      "emissiveFactor": [
        0,
        0,
        0
      ],
      "name": "Material.004",
      "pbrMetallicRoughness": {
        "baseColorFactor": [
          0,
          0,
          0,
          1
        ],
        "metallicFactor": 0,
        "roughnessFactor": 0
      }
    },
    {
      "doubleSided": true,
      "emissiveFactor": [
        0,
        0,
        0
      ],
      "name": "Material.006",
      "pbrMetallicRoughness": {
        "baseColorFactor": [
          0.0037316297,
          0.024531510499999999,
          0.12256760429999999,
          1
        ],
        "metallicFactor": 0,
        "roughnessFactor": 1
      }
    },
    {
      "doubleSided": true,
      "emissiveFactor": [
        1,
        1,
        1
      ],
      "name": "Material.003",
      "pbrMetallicRoughness": {
        "baseColorFactor": [
          1,
          1,
          1,
          1
        ],
        "metallicFactor": 0,
        "roughnessFactor": 0.59999999999999998
      }
    },
    {
      "alphaMode": "BLEND",
      "doubleSided": true,
      "name": "Material.005",
      "pbrMetallicRoughness": {
        "baseColorFactor": [
          1,
          1,
          1,
          0.17511432930000001
        ],
        "metallicFactor": 0,
        "roughnessFactor": 0
      }
    },
    {
      "doubleSided": true,
      "emissiveFactor": [
        0,
        0,
        0
      ],
      "name": "Material.002",
      "pbrMetallicRoughness": {
        "baseColorFactor": [
          1,
          1,
          1,
          1
        ],
        "metallicFactor": 0,
        "roughnessFactor": 0.19073932930000001
      }
    },
    {
      "doubleSided": true,
      "emissiveFactor": [
        0,
        0,
        1
      ],
      "name": "Material.001",
      "pbrMetallicRoughness": {
        "baseColorFactor": [
          0,
          0.45941442850000003,
          1,
          1
        ],
        "metallicFactor": 0,
        "roughnessFactor": 0
      }
    },
    {
      "doubleSided": true,
      "emissiveFactor": [
        0,
        0,
        0
      ],
      "name": "Material.007",
      "normalTexture": {
        "index": 0,
        "scale": 1,
        "texCoord": 0
      },
      "pbrMetallicRoughness": {
        "baseColorFactor": [
          1,
          1,
          1,
          1
        ],
        "baseColorTexture": {
          "index": 1,
          "texCoord": 0
        },
        "metallicFactor": 0,
        "metallicRoughnessTexture": {
          "index": 2,
          "texCoord": 0
        },
        "roughnessFactor": 0
      }
    },
    {
      "doubleSided": true,
      "emissiveFactor": [
        1,
        0.62097307300000004,
        0.52217569200000002
      ],
      "name": "Material",
      "pbrMetallicRoughness": {
        "baseColorFactor": [
          0.83708079270000002,
          0,
          0,
          1
        ],
        "metallicFactor": 0,
        "roughnessFactor": 0
      }
    }
  ],
  "meshes": [
    {
      "name": "Sphere_0",
      "primitives": [
        {
          "attributes": {
            "NORMAL": 1,
            "POSITION": 0,
            "TANGENT": 2
          },
          "indices": 3,
          "material": 5,
          "mode": 4
        }
      ]
    },
    {
      "name": "Sphere_1",
      "primitives": [
        {
          "attributes": {
            "NORMAL": 5,
            "POSITION": 4,
            "TANGENT": 6
          },
          "indices": 7,
          "material": 4,
          "mode": 4
        }
      ]
    },
    {
      "name": "Sphere_2",
      "primitives": [
        {
          "attributes": {
            "NORMAL": 9,
            "POSITION": 8,
            "TANGENT": 10
          },
          "indices": 11,
          "material": 2,
          "mode": 4
        }
      ]
    },
    {
      "name": "Sphere_3",
      "primitives": [
        {
          "attributes": {
            "NORMAL": 13,
            "POSITION": 12,
            "TANGENT": 14
          },
          "indices": 15,
          "material": 0,
          "mode": 4
        }
      ]
    },
    {
      "name": "Sphere_4",
      "primitives": [
        {
          "attributes": {
            "NORMAL": 17,
            "POSITION": 16,
            "TANGENT": 18,
            "TEXCOORD_0": 19
          },
          "indices": 20,
          "material": 6,
          "mode": 4
        }
      ]
    },
    {
      "name": "Sphere_5",
      "primitives": [
        {
          "attributes": {
            "NORMAL": 22,
            "POSITION": 21,
            "TANGENT": 23
          },
          "indices": 24,
          "material": 7,
          "mode": 4
        }
      ]
    },
    {
      "name": "Sphere.001_0",
      "primitives": [
        {
          "attributes": {
            "NORMAL": 26,
            "POSITION": 25
          },
          "indices": 27,
          "material": 3,
          "mode": 4
        }
      ]
    },
    {
      "name": "Sphere.001_1",
      "primitives": [
        {
          "attributes": {
            "NORMAL": 29,
            "POSITION": 28
          },
          "indices": 30,
          "material": 4,
          "mode": 4
        }
      ]
    },
    {
      "name": "Cylinder_0",
      "primitives": [
        {
          "attributes": {
            "NORMAL": 32,
            "POSITION": 31
          },
          "indices": 33,
          "material": 0,
          "mode": 4
        }
      ]
    },
    {
      "name": "Cylinder_1",
      "primitives": [
        {
          "attributes": {
            "NORMAL": 35,
            "POSITION": 34
          },
          "indices": 36,
          "material": 1,
          "mode": 4
        }
      ]
    },
    {
      "name": "Cylinder_2",
      "primitives": [
        {
          "attributes": {
            "NORMAL": 38,
            "POSITION": 37
          },
          "indices": 39,
          "material": 2,
          "mode": 4
        }
      ]
    }
  ],
  "nodes": [
    {
      "children": [
        1
      ],
      "name": "RootNode (gltf orientation matrix)",
      "rotation": [
        -0.70710678118654746,
        -0,
        -0,
        0.70710678118654757
      ]
    },
    {
      "children": [
        2
      ],
      "name": "RootNode (model correction matrix)"
    },
    {
      "children": [
        3,
        5,
        12,
        15
      ],
      "name": "Root"
    },
    {
      "children": [
        4
      ],
      "matrix": [
        -0.29086000000000006,
        0.95517000000000007,
        -0.05519000000000001,
        0,
        -0.77110000000000001,
        -0.19988000000000003,
        0.60452000000000006,
        0,
        0.56639000000000006,
        0.21839000000000003,
        0.7946700000000001,
        0,
        4.0762500000000008,
        1.00545,
        5.9038600000000008,
        1
      ],
      "name": "Lamp"
    },
    {
      "name": "Lamp"
    },
    {
      "children": [
        6,
        7,
        8,
        9,
        10,
        11
      ],
      "matrix": [
        1,
        0,
        0,
        0,
        0,
        1,
        0,
        0,
        0,
        0,
        0.16547000000000003,
        0,
        0,
        0,
        0,
        1
      ],
      "name": "Sphere"
    },
    {
      "mesh": 0,
      "name": "Sphere_0"
    },
    {
      "mesh": 1,
      "name": "Sphere_1"
    },
    {
      "mesh": 2,
      "name": "Sphere_2"
    },
    {
      "mesh": 3,
      "name": "Sphere_3"
    },
    {
      "mesh": 4,
      "name": "Sphere_4"
    },
    {
      "mesh": 5,
      "name": "Sphere_5"
    },
    {
      "children": [
        13,
        14
      ],
      "matrix": [
        0.64924000000000015,
        0,
        0,
        0,
        0,
        0.64924000000000015,
        0,
        0,
        0,
        0,
        0.64924000000000015,
        0,
        0,
        0,
        -0.010940000000000002,
        1
      ],
      "name": "Sphere.001"
    },
    {
      "mesh": 6,
      "name": "Sphere.001_0"
    },
    {
      "mesh": 7,
      "name": "Sphere.001_1"
    },
    {
      "children": [
        16,
        17,
        18
      ],
      "matrix": [
        0.14538000000000001,
        0,
        0,
        0,
        0,
        0.14538000000000001,
        0,
        0,
        0,
        0,
        0.12389000000000001,
        0,
        0,
        0,
        0.023240000000000004,
        1
      ],
      "name": "Cylinder"
    },
    {
      "mesh": 8,
      "name": "Cylinder_0"
    },
    {
      "mesh": 9,
      "name": "Cylinder_1"
    },
    {
      "mesh": 10,
      "name": "Cylinder_2"
    }
  ],
  "samplers": [
    {
      "magFilter": 9729,
      "minFilter": 9987,
      "wrapS": 10497,
      "wrapT": 10497
    }
  ],
  "scene": 0,
  "scenes": [
    {
      "name": "OSG_Scene",
      "nodes": [
        0
      ]
    }
  ],
  "textures": [
    {
      "sampler": 0,
      "source": 0
    },
    {
      "sampler": 0,
      "source": 1
    },
    {
      "sampler": 0,
      "source": 2
    }
  ]
}

