{
  "accessors": [
    {
      "bufferView": 2,
      "componentType": 5126,
      "count": 764,
      "max": [
        9.5693998336791992,
        -8.9167995452880859,
        0.055900000035762787
      ],
      "min": [
        -166.37089538574219,
        -86.511299133300781,
        -30.379400253295898
      ],
      "type": "VEC3"
    },
    {
      "bufferView": 2,
      "byteOffset": 9168,
      "componentType": 5126,
      "count": 764,
      "max": [
        0.99992829561233521,
        0.9998706579208374,
        0.99974209070205688
      ],
      "min": [
        -0.99844521284103394,
        -0.99999964237213135,
        -0.99791991710662842
      ],
      "type": "VEC3"
    },
    {
      "bufferView": 1,
      "componentType": 5126,
      "count": 764,
      "max": [
        12.984499931335449,
        1.5134999752044678
      ],
      "min": [
        -13.264699935913086,
        -31.95159912109375
      ],
      "type": "VEC2"
    },
    {
      "bufferView": 0,
      "componentType": 5125,
      "count": 1356,
      "max": [
        763
      ],
      "min": [
        0
      ],
      "type": "SCALAR"
    },
    {
      "bufferView": 2,
      "byteOffset": 18336,
      "componentType": 5126,
      "count": 605,
      "max": [
        -60.052898406982422,
        -47.137901306152344,
        -11.319299697875977
      ],
      "min": [
        -96.505096435546875,
        -93.554298400878906,
        -41.582199096679688
      ],
      "type": "VEC3"
    },
    {
      "bufferView": 2,
      "byteOffset": 25596,
      "componentType": 5126,
      "count": 605,
      "max": [
        0.9995722770690918,
        0.99905848503112793,
        0.99971288442611694
      ],
      "min": [
        -0.99990040063858032,
        -0.99054324626922607,
        -0.99971288442611694
      ],
      "type": "VEC3"
    },
    {
      "bufferView": 1,
      "byteOffset": 6112,
      "componentType": 5126,
      "count": 605,
      "max": [
        15.686400413513184,
        0.99580001831054688
      ],
      "min": [
        -13.219599723815918,
        -15.984399795532227
      ],
      "type": "VEC2"
    },
    {
      "bufferView": 0,
      "byteOffset": 5424,
      "componentType": 5125,
      "count": 1194,
      "max": [
        604
      ],
      "min": [
        0
      ],
      "type": "SCALAR"
    }
  ],
  "asset": {
    "extras": {
      "author": "lysol-jones (https://sketchfab.com/lysol-jones)",
      "license": "CC-BY-4.0 (http://creativecommons.org/licenses/by/4.0/)",
      "source": "https://sketchfab.com/3d-models/plane-mode-d8cfa7f49ae34a33a324ec8b9e8bd640",
      "title": "Plane Mode"
    },
    "generator": "Sketchfab-7.61.0",
    "version": "2.0"
  },
  "bufferViews": [
    {
      "buffer": 0,
      "byteLength": 10200,
      "byteOffset": 0,
      "name": "floatBufferViews",
      "target": 34963
    },
    {
      "buffer": 0,
      "byteLength": 10952,
      "byteOffset": 10200,
      "byteStride": 8,
      "name": "floatBufferViews",
      "target": 34962
    },
    {
      "buffer": 0,
      "byteLength": 32856,
      "byteOffset": 21152,
      "byteStride": 12,
      "name": "floatBufferViews",
      "target": 34962
    }
  ],
  "buffers": [
    {
      "byteLength": 54008,
      "uri": "scene.bin"
    }
  ],
  "extensionsUsed": [
    "KHR_materials_unlit"
  ],
  "images": [
    {
      "uri": "textures/15___Default_baseColor.png"
    },
    {
      "uri": "textures/19___Default_baseColor.png"
    }
  ],
  "materials": [
    {
      "doubleSided": true,
      "emissiveFactor": [
        0,
        0,
        0
      ],
      "emissiveTexture": {
        "index": 0,
        "texCoord": 0
      },
      "extensions": {
        "KHR_materials_unlit": {}
      },
      "name": "15___Default",
      "pbrMetallicRoughness": {
        "baseColorFactor": [
          1,
          1,
          1,
          1
        ],
        "baseColorTexture": {
          "index": 0,
          "texCoord": 0
        },
        "metallicFactor": 0,
        "roughnessFactor": 1
      }
    },
    {
      "doubleSided": true,
      "emissiveFactor": [
        0,
        0,
        0
      ],
      "emissiveTexture": {
        "index": 1,
        "texCoord": 0
      },
      "extensions": {
        "KHR_materials_unlit": {}
      },
      "name": "19___Default",
      "pbrMetallicRoughness": {
        "baseColorFactor": [
          1,
          1,
          1,
          1
        ],
        "baseColorTexture": {
          "index": 1,
          "texCoord": 0
        },
        "metallicFactor": 0,
        "roughnessFactor": 1
      }
    }
  ],
  "meshes": [
    {
      "primitives": [
        {
          "attributes": {
            "NORMAL": 1,
            "POSITION": 0,
            "TEXCOORD_0": 2
          },
          "indices": 3,
          "material": 0,
          "mode": 4
        }
      ]
    },
    {
      "primitives": [
        {
          "attributes": {
            "NORMAL": 5,
            "POSITION": 4,
            "TEXCOORD_0": 6
          },
          "indices": 7,
          "material": 1,
          "mode": 4
        }
      ]
    }
  ],
  "nodes": [
    {
      "children": [
        1
      ],
      "name": "RootNode (gltf orientation matrix)",
      "rotation": [
        -0.70710678118654746,
        -0,
        -0,
        0.70710678118654757
      ]
    },
    {
      "children": [
        2
      ],
      "name": "RootNode (model correction matrix)"
    },
    {
      "children": [
        3,
        4
      ],
      "name": "PlaneMode.obj.cleaner.materialmerger.gles"
    },
    {
      "mesh": 0,
      "name": ""
    },
    {
      "mesh": 1,
      "name": ""
    }
  ],
  "samplers": [
    {
      "magFilter": 9729,
      "minFilter": 9987,
      "wrapS": 10497,
      "wrapT": 10497
    }
  ],
  "scene": 0,
  "scenes": [
    {
      "name": "OSG_Scene",
      "nodes": [
        0
      ]
    }
  ],
  "textures": [
    {
      "sampler": 0,
      "source": 0
    },
    {
      "sampler": 0,
      "source": 1
    }
  ]
}

